<?xml version="1.0" standalone="no"?>
<!DOCTYPE svg PUBLIC "-//W3C//DTD SVG 20010904//EN"
 "http://www.w3.org/TR/2001/REC-SVG-20010904/DTD/svg10.dtd">
<svg version="1.0" xmlns="http://www.w3.org/2000/svg"
 width="463.000000pt" height="463.000000pt" viewBox="0 0 463.000000 463.000000"
 preserveAspectRatio="xMidYMid meet">
<metadata>
Created by potrace 1.11, written by Peter Selinger 2001-2013
</metadata>
<g transform="translate(0.000000,463.000000) scale(0.100000,-0.100000)"
fill="#000000" stroke="none">
<path d="M2277 4154 c-4 -4 -31 -8 -59 -10 -29 -1 -64 -5 -78 -9 -14 -3 -36
-8 -50 -11 -14 -3 -45 -14 -69 -25 -24 -10 -46 -17 -50 -14 -4 2 -13 -4 -21
-15 -7 -10 -19 -16 -26 -13 -8 3 -17 -2 -20 -11 -3 -9 -12 -16 -20 -16 -8 0
-14 -4 -14 -10 0 -5 -5 -10 -11 -10 -7 0 -26 -16 -45 -35 -18 -19 -30 -35 -27
-35 3 0 -4 -8 -15 -19 -12 -10 -19 -21 -15 -25 3 -3 1 -6 -5 -6 -7 0 -12 -6
-12 -14 0 -8 -5 -16 -10 -18 -6 -2 -12 -13 -13 -26 0 -12 -5 -22 -9 -22 -4 0
-8 -9 -8 -20 0 -11 -3 -20 -8 -20 -4 0 -8 -15 -10 -32 -5 -65 -9 -713 -4 -722
3 -5 6 -22 7 -37 4 -43 28 -119 38 -119 5 0 6 -7 3 -15 -3 -9 1 -18 9 -21 8
-4 15 -12 15 -19 0 -6 9 -20 20 -30 11 -10 17 -22 14 -26 -3 -5 2 -9 10 -9 9
0 16 -7 16 -17 0 -9 3 -13 6 -10 4 4 14 -1 23 -11 20 -23 106 -82 119 -82 6 0
12 -3 14 -8 5 -11 128 -51 166 -54 18 -1 32 -5 32 -8 0 -7 18 -8 110 -9 96 0
140 3 140 10 0 4 13 6 30 5 16 -1 31 1 32 6 2 4 15 9 31 10 15 1 27 7 27 12 0
5 3 7 6 3 4 -3 24 3 45 14 22 11 39 16 39 12 1 -5 10 3 20 16 11 13 20 20 20
16 0 -10 69 42 100 75 36 38 79 90 75 90 -2 0 7 24 20 54 13 30 21 57 18 60
-4 3 -2 6 4 6 14 0 13 -4 19 283 l6 257 -43 1 c-87 1 -134 1 -144 -1 -5 -1
-12 -1 -15 0 -16 6 -78 5 -96 -1 -12 -4 -25 -5 -28 -2 -10 10 -69 10 -89 1 -9
-5 -23 -6 -29 -2 -10 6 -132 7 -183 2 -13 -2 -13 -87 -1 -107 6 -10 5 -12 -3
-7 -8 5 -10 0 -7 -18 3 -14 7 -30 11 -36 3 -5 1 -10 -6 -10 -9 0 -9 -3 0 -14
7 -8 8 -17 4 -19 -10 -6 -10 -113 0 -123 4 -4 7 -3 7 2 0 5 30 7 70 4 39 -3
70 -2 70 3 0 4 8 3 18 -2 13 -7 23 -6 30 1 9 9 12 8 12 -2 0 -13 2 -13 10 0 7
11 10 11 10 2 0 -7 4 -11 10 -7 8 5 8 -86 0 -105 -1 -3 -2 -8 -1 -12 0 -5 -4
-8 -10 -8 -5 0 -8 -4 -5 -8 7 -12 -39 -55 -86 -81 -25 -13 -40 -17 -44 -10 -4
8 -9 8 -13 1 -7 -11 -87 -20 -97 -10 -3 4 -12 4 -20 1 -8 -3 -14 -1 -14 5 0 6
-9 8 -20 5 -12 -3 -20 0 -20 7 0 6 -5 10 -12 8 -18 -6 -77 51 -93 88 -10 25
-13 104 -13 328 1 163 3 307 5 320 3 14 17 38 32 54 24 27 87 70 104 71 4 1 8
2 10 2 1 1 29 3 62 4 62 2 145 -24 145 -45 0 -6 4 -9 9 -6 10 6 63 -58 55 -66
-2 -3 6 -4 18 -3 13 1 23 3 23 4 0 2 9 4 19 6 10 2 22 9 26 15 4 7 9 11 11 10
6 -2 60 19 101 40 20 10 39 16 42 13 3 -4 6 -1 6 5 0 6 14 13 30 17 17 4 30
11 30 16 0 6 4 8 8 5 4 -2 14 -1 21 3 11 7 10 14 -4 35 -10 14 -13 26 -9 26 5
0 1 5 -8 11 -10 5 -18 14 -18 19 0 16 -120 147 -120 132 0 -4 -7 2 -15 12 -8
11 -15 16 -15 11 0 -4 -8 -1 -17 7 -10 9 -28 19 -40 22 -13 4 -23 11 -23 16 0
5 -7 7 -15 4 -8 -4 -15 -1 -15 6 0 6 -4 9 -8 6 -5 -3 -20 1 -35 9 -14 7 -28
10 -32 7 -3 -4 -10 0 -15 8 -6 10 -10 11 -10 3 0 -9 -7 -10 -26 -3 -14 6 -29
8 -33 6 -4 -3 -13 -1 -21 4 -7 4 -24 4 -36 0 -14 -6 -24 -5 -26 1 -2 6 -7 7
-11 3z"/>
<path d="M309 4130 l-25 -5 0 -182 c0 -101 3 -184 8 -184 4 -1 22 -3 38 -4 17
-1 32 -4 35 -5 6 -3 54 -3 58 0 8 8 87 5 87 -3 0 -6 5 -6 13 0 10 8 26 8 92 2
6 0 20 2 33 5 12 3 22 0 22 -6 0 -7 5 -6 14 1 8 7 16 8 19 4 2 -4 4 -275 3
-600 l-1 -593 145 -1 c80 0 169 -1 197 -2 33 -1 54 2 57 10 3 6 5 273 5 593 0
320 3 585 6 590 6 9 24 8 43 -3 6 -5 12 -4 12 1 0 4 17 7 38 5 52 -4 86 -6 92
-3 15 7 130 4 130 -3 0 -4 4 -5 10 -2 18 11 50 14 50 4 0 -6 8 -5 21 1 15 9
18 15 10 24 -6 7 -8 16 -4 20 12 11 10 186 -1 186 -7 0 -8 3 -1 8 15 11 13
141 -2 146 -7 3 -15 1 -18 -5 -4 -5 -11 -6 -17 -3 -13 8 -1131 12 -1169 4z"/>
<path d="M3244 4131 c3 -4 -19 -6 -49 -4 -30 2 -55 0 -56 -4 0 -4 -2 -354 -2
-776 -2 -553 1 -771 9 -778 6 -5 46 -8 88 -6 42 1 76 -2 76 -7 0 -4 7 -3 15 4
12 10 15 10 15 -1 0 -9 3 -10 8 -4 9 12 282 14 282 1 0 -5 7 -3 15 4 12 10 15
10 15 -1 0 -9 3 -10 8 -4 4 6 57 11 117 12 139 3 191 10 248 33 12 5 53 13 55
11 2 -1 12 7 22 19 10 12 22 21 27 21 14 -1 45 11 40 16 -6 5 41 53 52 53 5 0
14 14 21 30 7 17 15 30 19 30 7 0 34 61 32 73 0 4 3 7 9 7 6 0 9 3 9 8 -1 4 0
10 1 15 6 17 8 29 9 58 0 16 5 28 9 25 5 -3 10 26 11 65 1 39 -2 69 -6 66 -4
-3 -9 5 -10 16 -5 51 -48 147 -66 147 -6 0 -7 3 -3 7 8 8 -89 100 -115 108
-29 9 -24 21 31 73 28 27 47 51 44 55 -4 4 -2 7 4 7 6 0 13 14 17 30 4 17 10
30 14 30 9 0 9 1 14 95 2 39 0 86 -5 105 -5 19 -9 43 -9 53 0 9 -3 17 -7 17
-4 0 -16 20 -27 45 -11 25 -23 45 -27 45 -5 0 -8 5 -8 10 0 16 -87 100 -104
100 -7 0 -17 7 -20 16 -3 8 -10 12 -16 9 -5 -3 -10 -1 -10 6 0 7 -3 10 -6 6
-4 -3 -18 0 -33 7 -14 8 -40 16 -57 19 -17 3 -40 10 -51 15 -14 8 -23 8 -31 0
-7 -7 -12 -8 -12 -2 0 5 -15 9 -32 9 -18 0 -48 3 -65 6 -18 4 -31 4 -28 0 2
-4 -12 -7 -30 -7 -19 1 -35 4 -35 8 0 4 -12 3 -28 -1 -15 -5 -37 -4 -50 0 -13
5 -21 5 -18 1 3 -5 -11 -8 -29 -8 -19 1 -35 4 -35 8 0 4 -12 3 -28 -1 -15 -5
-37 -4 -50 0 -13 5 -21 5 -18 1 3 -5 -11 -8 -29 -8 -19 1 -35 4 -35 8 0 4 -12
3 -28 -1 -15 -5 -37 -4 -50 0 -13 5 -21 5 -18 0z m571 -345 c36 -8 89 -62 94
-97 2 -13 4 -31 6 -39 4 -23 -32 -88 -59 -105 -13 -9 -34 -18 -47 -21 -27 -7
-236 -12 -259 -6 -12 2 -15 18 -14 71 0 37 4 73 8 79 4 7 3 12 -1 12 -5 0 -8
23 -8 50 0 28 3 50 8 50 4 0 6 3 3 8 -5 9 225 7 269 -2z m-228 -559 c6 -4 14
-4 16 1 6 8 126 7 134 -2 3 -2 16 -1 29 4 14 6 26 6 29 -1 4 -5 11 -7 16 -4 5
4 9 0 9 -7 0 -11 2 -11 9 0 7 11 11 11 24 -2 8 -9 19 -16 23 -16 14 0 54 -55
60 -85 12 -49 11 -69 0 -95 -18 -42 -48 -80 -61 -80 -7 0 -15 -4 -17 -10 -1
-5 -12 -11 -23 -13 -11 -1 -25 -6 -32 -10 -6 -4 -14 -3 -18 2 -4 7 -15 7 -31
1 -18 -7 -23 -7 -18 2 5 7 3 8 -5 3 -19 -11 -80 -12 -85 0 -3 7 -7 7 -13 0
-10 -12 -74 -13 -88 -1 -13 11 -13 59 0 69 6 6 7 10 0 13 -8 3 -12 186 -6 235
1 8 33 5 48 -4z"/>
<path d="M3168 2076 c-15 -8 -29 -12 -32 -8 -3 3 -6 0 -6 -7 0 -7 -4 -9 -10
-6 -5 3 -10 2 -10 -3 0 -5 -10 -14 -22 -20 -13 -6 -50 -27 -83 -47 -33 -19
-72 -40 -87 -46 -16 -6 -28 -15 -28 -19 0 -4 -11 -11 -25 -14 -14 -4 -25 -11
-25 -17 0 -6 -4 -7 -10 -4 -5 3 -10 1 -10 -5 0 -6 -4 -8 -10 -5 -5 3 -10 1
-10 -4 0 -6 -5 -11 -12 -11 -6 0 -26 -11 -44 -25 -18 -14 -38 -25 -45 -25 -7
0 -20 -6 -28 -14 -9 -7 -41 -27 -71 -43 -30 -17 -71 -40 -90 -52 -19 -11 -47
-26 -62 -32 -16 -6 -28 -15 -28 -21 0 -5 -4 -6 -10 -3 -15 9 -12 0 8 -21 9
-10 24 -20 32 -22 8 -2 17 -7 20 -11 3 -4 33 -23 68 -41 34 -18 62 -37 62 -42
0 -5 6 -8 12 -6 7 3 18 0 25 -6 34 -30 43 -36 57 -36 8 0 16 -4 18 -9 2 -5 10
-11 18 -13 14 -3 21 -7 55 -36 8 -7 15 -10 15 -8 0 3 29 -12 65 -34 36 -22 69
-40 74 -40 5 0 14 -7 21 -15 7 -8 16 -12 21 -9 5 3 9 0 9 -5 0 -6 5 -11 11
-11 25 0 34 -28 34 -102 0 -46 -4 -78 -10 -78 -7 0 -7 -3 0 -8 6 -4 10 -38 10
-77 0 -38 -4 -73 -10 -77 -7 -5 -7 -8 0 -8 6 0 10 -98 10 -272 0 -171 -4 -276
-10 -280 -6 -5 -6 -8 1 -8 6 0 10 -11 8 -25 l-2 -26 81 3 81 3 0 883 c1 485 1
882 1 882 0 0 -12 -6 -27 -14z"/>
<path d="M3350 1065 l0 -745 162 2 162 3 1 38 c0 21 -3 41 -8 44 -4 2 -4 10 0
16 10 15 10 87 0 104 -4 6 -4 14 0 16 11 7 8 230 -2 247 -5 9 -4 11 3 6 7 -4
12 -2 12 3 0 6 -6 11 -12 11 -8 0 -9 3 -3 8 12 8 13 51 2 69 -4 6 -4 14 1 17
9 6 9 87 -1 103 -4 6 -4 14 1 17 10 6 8 68 -3 86 -5 9 -4 11 3 6 7 -4 12 -2
12 3 0 6 -6 11 -12 11 -8 0 -9 3 -3 8 12 8 13 51 2 69 -4 6 -4 14 1 17 9 6 9
87 -1 103 -4 6 -4 14 1 17 10 6 8 68 -3 86 -5 9 -4 11 3 6 7 -4 12 -2 12 3 0
6 -6 11 -12 11 -8 0 -9 3 -3 8 12 8 13 51 2 69 -4 6 -4 14 1 17 4 2 7 23 6 46
-1 40 -23 69 -50 70 -6 0 -17 7 -24 15 -7 9 -15 13 -18 11 -2 -3 -23 7 -46 22
-22 16 -62 39 -88 52 -27 14 -48 29 -48 33 0 5 -4 6 -9 2 -5 -3 -12 -1 -16 5
-3 5 -10 10 -16 10 -5 0 -9 -286 -9 -745z"/>
<path d="M2345 1609 c-22 -16 -46 -28 -52 -29 -7 0 -13 -4 -13 -10 0 -5 -4
-10 -9 -10 -13 0 -135 -73 -139 -82 -2 -5 -12 -8 -22 -8 -10 0 -21 -7 -24 -16
-3 -8 -10 -13 -15 -10 -5 3 -14 -1 -21 -9 -7 -8 -17 -15 -22 -15 -5 0 -25 -11
-45 -25 -20 -13 -40 -22 -45 -19 -4 3 -8 1 -8 -4 0 -5 -21 -20 -47 -33 -26
-13 -53 -29 -60 -36 -7 -6 -26 -17 -43 -25 -16 -7 -30 -17 -30 -21 0 -5 -4 -5
-10 -2 -5 3 -10 2 -10 -2 0 -5 -22 -20 -50 -34 -27 -13 -50 -27 -50 -31 0 -5
-7 -8 -17 -8 -14 0 -14 -2 2 -20 10 -11 24 -20 32 -20 7 0 13 -4 13 -10 0 -5
6 -10 14 -10 8 0 21 -7 30 -15 8 -9 17 -15 18 -13 5 4 123 -65 126 -74 2 -4
12 -8 23 -8 10 0 19 -5 19 -11 0 -5 5 -7 10 -4 6 3 10 1 10 -4 0 -6 7 -11 15
-11 8 0 15 -4 15 -8 0 -5 16 -14 35 -22 19 -8 35 -17 35 -22 0 -4 7 -8 15 -8
8 0 15 -5 15 -12 0 -6 3 -8 6 -5 4 4 19 -2 34 -13 16 -11 33 -20 39 -20 6 0
11 -5 11 -11 0 -5 5 -7 10 -4 6 3 10 3 10 -2 0 -4 18 -17 40 -27 27 -13 40
-26 41 -40 6 -107 3 -385 -4 -400 -6 -12 -6 -16 2 -12 6 4 9 -4 6 -24 l-4 -31
82 3 81 3 1 653 c0 360 -2 655 -5 656 -3 2 -23 -10 -45 -25z"/>
<path d="M2554 835 l0 -515 158 0 c158 0 165 2 159 34 -1 5 4 13 11 17 9 6 9
9 1 9 -8 0 -11 96 -11 368 0 202 -1 381 -1 397 -1 25 -8 33 -41 49 -22 11 -40
23 -40 28 0 5 -4 6 -10 3 -5 -3 -10 -2 -10 3 0 6 -11 13 -25 16 -14 4 -25 11
-25 17 0 6 -4 7 -10 4 -5 -3 -10 -1 -10 4 0 6 -6 11 -12 11 -7 0 -38 16 -68
35 -30 19 -57 35 -60 35 -3 0 -6 -232 -6 -515z"/>
<path d="M1560 1149 c0 -5 -4 -7 -10 -4 -5 3 -10 1 -10 -4 0 -6 -7 -11 -15
-11 -8 0 -15 -5 -15 -11 0 -5 -4 -8 -9 -5 -5 3 -14 -1 -21 -9 -7 -8 -16 -13
-20 -10 -4 3 -10 -2 -14 -10 -3 -8 -15 -15 -26 -15 -11 0 -20 -4 -20 -9 0 -5
-16 -15 -35 -22 -19 -7 -35 -16 -35 -19 0 -4 -18 -15 -40 -25 -22 -10 -40 -21
-40 -24 0 -3 -15 -12 -32 -20 -18 -8 -46 -24 -63 -35 -16 -12 -32 -20 -35 -18
-3 1 -13 -5 -23 -13 -9 -8 -21 -15 -26 -15 -5 0 -14 -7 -21 -15 -6 -8 -15 -13
-18 -12 -4 1 -24 -9 -45 -22 l-38 -23 2 -239 2 -239 321 2 321 3 0 418 c0 391
-1 417 -17 417 -10 0 -18 -5 -18 -11z"/>
<path d="M1753 800 c0 -56 4 -87 10 -83 6 4 7 1 1 -8 -13 -21 -13 -149 0 -149
8 0 8 -3 0 -8 -13 -9 -14 -163 -1 -155 6 4 7 1 1 -8 -5 -8 -9 -26 -10 -41 l0
-28 163 0 163 0 -4 25 c-3 13 0 27 5 31 6 3 6 11 1 17 -10 14 -9 98 2 115 4 7
3 12 -2 12 -12 0 -10 43 3 52 7 5 6 8 0 8 -12 0 -13 49 -2 68 5 6 4 12 -2 12
-5 0 -8 9 -6 19 4 21 -13 39 -65 67 -19 10 -37 21 -40 24 -3 3 -26 17 -52 30
-27 14 -48 28 -48 31 0 4 -11 10 -24 13 -14 3 -32 13 -40 22 -9 8 -24 17 -35
19 -17 3 -19 -4 -18 -85z"/>
</g>
</svg>
